<?xml version="1.0" encoding="utf-8"?>
<!-- Generator: Adobe Illustrator 27.2.0, SVG Export Plug-In . SVG Version: 6.00 Build 0)  -->
<svg version="1.1" id="Ebene_1" xmlns="http://www.w3.org/2000/svg" xmlns:xlink="http://www.w3.org/1999/xlink" x="0px" y="0px"
	 viewBox="0 0 841.89 595.28" style="enable-background:new 0 0 841.89 595.28;" xml:space="preserve">
<style type="text/css">
	.st0{clip-path:url(#SVGID_00000002353063186317021980000017820036997142225281_);fill:#594446;}
	
		.st1{clip-path:url(#SVGID_00000149342152423782849260000016589897915017587378_);fill:none;stroke:#664C4C;stroke-width:8.337;stroke-linecap:round;stroke-linejoin:round;stroke-miterlimit:3;}
</style>
<g>
	<defs>
		<rect id="SVGID_1_" x="171.52" y="80.22" width="499.57" height="434.94"/>
	</defs>
	<clipPath id="SVGID_00000106137379376379532720000015267404000020058301_">
		<use xlink:href="#SVGID_1_"  style="overflow:visible;"/>
	</clipPath>
	<path style="clip-path:url(#SVGID_00000106137379376379532720000015267404000020058301_);fill:#594446;" d="M179.58,305.56
		l-7.71-20.94h2.3l3.9,10.72c1.13,3.13,2.34,6.44,2.79,8.28h0.06c0.45-1.63,1.77-5.11,2.91-8.17l4.05-10.83h2.23l-7.99,20.94H179.58
		z M206.16,295.49H195.6v8.17h11.58l-0.29,1.89h-13.4v-20.94h13.2v1.89H195.6v7.09h10.56V295.49z M213.3,296.03v9.53h-2.15v-20.94
		h7.81c4.21,0,6.44,2.27,6.44,5.55c0,2.69-1.58,4.39-3.76,4.92c1.95,0.49,3.41,1.83,3.41,5.43v0.85c0,1.46-0.1,3.36,0.27,4.2h-2.12
		c-0.39-0.9-0.32-2.56-0.32-4.43v-0.5c0-3.23-0.94-4.61-4.83-4.61H213.3z M218.13,294.15c3.46,0,5.03-1.3,5.03-3.87
		c0-2.42-1.57-3.79-4.65-3.79h-5.22v7.66H218.13z M234.71,286.51h-6.91v-1.89h16.01v1.89h-6.93v19.05h-2.16V286.51z M248.99,284.62
		v20.94h-2.14v-20.94H248.99z M270.87,299.81c-0.96,3.43-3.5,6-8.08,6c-6.13,0-9.29-4.77-9.29-10.68c0-5.67,3.13-10.82,9.36-10.82
		c4.71,0,7.38,2.65,8.03,6.15h-2.14c-0.86-2.52-2.51-4.28-5.99-4.28c-4.94,0-6.99,4.51-6.99,8.9c0,4.32,1.99,8.86,7.11,8.86
		c3.33,0,4.92-1.8,5.85-4.13H270.87z M277.5,298.75l-2.48,6.81h-2.15l7.58-20.94h2.59l7.91,20.94h-2.3l-2.54-6.81H277.5z
		 M285.49,296.86c-2.18-5.9-3.33-8.86-3.77-10.35h-0.03c-0.51,1.67-1.8,5.3-3.56,10.35H285.49z M294.47,284.62h2.14v19.05h11.1
		l-0.34,1.89h-12.9V284.62z M321.21,298.75l-2.48,6.81h-2.15l7.58-20.94h2.59l7.91,20.94h-2.3l-2.54-6.81H321.21z M329.2,296.86
		c-2.18-5.9-3.33-8.86-3.77-10.35h-0.03c-0.51,1.67-1.8,5.3-3.56,10.35H329.2z M338.18,284.62h7.63c4.2,0,6.31,2.22,6.31,5.18
		c0,2.46-1.45,4.06-3.13,4.57c1.48,0.44,3.85,1.91,3.85,5.1c0,4.08-3.08,6.08-6.88,6.08h-7.79V284.62z M345.27,293.49
		c3.36,0,4.64-1.28,4.64-3.53c0-1.97-1.39-3.49-4.11-3.49h-5.54v7.01H345.27z M340.28,303.7h5.57c2.7,0,4.79-1.31,4.79-4.18
		c0-2.49-1.59-4.18-5.5-4.18h-4.85V303.7z M365.49,305.86c-6.02,0-9.46-4.76-9.46-10.77c0-5.95,3.41-10.77,9.68-10.77
		c5.81,0,9.43,4.48,9.43,10.64C375.15,300.69,372.02,305.86,365.49,305.86z M358.3,295c0,4.69,2.51,8.97,7.3,8.97
		c5.17,0,7.29-4.24,7.29-8.98c0-4.71-2.4-8.78-7.25-8.78C360.54,286.21,358.3,290.39,358.3,295z M386.82,284.62
		c5.81,0,9.79,4.01,9.79,10.28c0,6.23-3.89,10.67-9.85,10.67h-7.13v-20.94H386.82z M381.78,303.67h4.76c5.26,0,7.81-3.73,7.81-8.7
		c0-4.39-2.31-8.47-7.81-8.47h-4.76V303.67z M413.76,295.49H403.2v8.17h11.58l-0.29,1.89h-13.4v-20.94h13.2v1.89H403.2v7.09h10.56
		V295.49z"/>
</g>
<g>
	<defs>
		<rect id="SVGID_00000022545613777024898190000003455089720508282297_" x="171.52" y="80.22" width="499.57" height="434.94"/>
	</defs>
	<clipPath id="SVGID_00000131350292450375894640000004262944527382789544_">
		<use xlink:href="#SVGID_00000022545613777024898190000003455089720508282297_"  style="overflow:visible;"/>
	</clipPath>
</g>
<g>
	<defs>
		<rect id="SVGID_00000010292081120400086270000017521375409642263993_" x="243.52" y="80.22" width="427.57" height="434.94"/>
	</defs>
	<clipPath id="SVGID_00000018924807365969106070000003649399399151261855_">
		<use xlink:href="#SVGID_00000010292081120400086270000017521375409642263993_"  style="overflow:visible;"/>
	</clipPath>
	
		<line style="clip-path:url(#SVGID_00000018924807365969106070000003649399399151261855_);fill:none;stroke:#664C4C;stroke-width:8.337;stroke-linecap:round;stroke-linejoin:round;stroke-miterlimit:3;" x1="250.53" y1="329.22" x2="341.6" y2="508.16"/>
	
		<line style="clip-path:url(#SVGID_00000018924807365969106070000003649399399151261855_);fill:none;stroke:#664C4C;stroke-width:8.337;stroke-linecap:round;stroke-linejoin:round;stroke-miterlimit:3;" x1="341.6" y1="508.16" x2="549.02" y2="100.2"/>
	
		<line style="clip-path:url(#SVGID_00000018924807365969106070000003649399399151261855_);fill:none;stroke:#664C4C;stroke-width:8.337;stroke-linecap:round;stroke-linejoin:round;stroke-miterlimit:3;" x1="549.02" y1="100.2" x2="657.65" y2="313.11"/>
	
		<line style="clip-path:url(#SVGID_00000018924807365969106070000003649399399151261855_);fill:none;stroke:#664C4C;stroke-width:8.337;stroke-linecap:round;stroke-linejoin:round;stroke-miterlimit:3;" x1="657.65" y1="313.11" x2="501.63" y2="313.11"/>
</g>
</svg>
